<svg xmlns:dc="http://purl.org/dc/elements/1.1/" xmlns:cc="http://creativecommons.org/ns#" xmlns:rdf="http://www.w3.org/1999/02/22-rdf-syntax-ns#" xmlns:svg="http://www.w3.org/2000/svg" xmlns="http://www.w3.org/2000/svg" xmlns:xlink="http://www.w3.org/1999/xlink" xmlns:sodipodi="http://sodipodi.sourceforge.net/DTD/sodipodi-0.dtd" xmlns:inkscape="http://www.inkscape.org/namespaces/inkscape" width="1280" height="1280" viewBox="0 0 959.99998 960.00002" version="1.1" id="svg4560" inkscape:version="0.92.2 (5c3e80d, 2017-08-06)" sodipodi:docname="team1_render.svg">
            <defs id="defs4554">
              <linearGradient inkscape:collect="always" xlink:href="#linearGradient8632" id="linearGradient8634" x1="4736.3223" y1="7966.894" x2="4740.2915" y2="6799.2271" gradientUnits="userSpaceOnUse" gradientTransform="matrix(0.81315337,0,0,0.81321039,-3291.5619,-5629.5619)"></linearGradient>
              <linearGradient inkscape:collect="always" id="linearGradient8632">
                <stop style="stop-color:#e66714;stop-opacity:1" offset="0" id="stop8628"></stop>
                <stop style="stop-color:#e4b13c;stop-opacity:1" offset="1" id="stop8630"></stop>
              </linearGradient>
              <linearGradient inkscape:collect="always" xlink:href="#linearGradient8661" id="linearGradient8663" x1="4372.6812" y1="7960.4033" x2="5122.8584" y2="6949.9385" gradientUnits="userSpaceOnUse" gradientTransform="matrix(0.81315337,0,0,0.81321039,-3291.5619,-5629.5619)"></linearGradient>
              <linearGradient inkscape:collect="always" id="linearGradient8661">
                <stop style="stop-color:#360200;stop-opacity:1" offset="0" id="stop8657"></stop>
                <stop style="stop-color:#341500;stop-opacity:0.95959598" offset="1" id="stop8659"></stop>
              </linearGradient>
            </defs>
            <sodipodi:namedview id="base" pagecolor="#ffffff" bordercolor="#666666" borderopacity="1.0" inkscape:pageopacity="0.0" inkscape:pageshadow="2" inkscape:zoom="0.35355339" inkscape:cx="543.73473" inkscape:cy="705.44251" inkscape:document-units="pt" inkscape:current-layer="layer2" showgrid="true" inkscape:window-width="1848" inkscape:window-height="1057" inkscape:window-x="-8" inkscape:window-y="-8" inkscape:window-maximized="1" units="px" inkscape:snap-global="false">
              <inkscape:grid type="xygrid" id="grid5105" spacingx="6" spacingy="6" empspacing="8"></inkscape:grid>
            </sodipodi:namedview>
            <metadata id="metadata4557">
              <rdf:rdf>
                <cc:work rdf:about="">
                  <dc:format>image/svg+xml</dc:format>
                  <dc:type rdf:resource="http://purl.org/dc/dcmitype/StillImage"></dc:type>
                  <dc:title></dc:title>
                </cc:work>
              </rdf:rdf>
            </metadata>
            <g inkscape:groupmode="layer" id="layer2" inkscape:label="Layer 1">
              <path style="color:#000000;font-style:normal;font-variant:normal;font-weight:normal;font-stretch:normal;font-size:medium;line-height:normal;font-family:sans-serif;font-variant-ligatures:normal;font-variant-position:normal;font-variant-caps:normal;font-variant-numeric:normal;font-variant-alternates:normal;font-feature-settings:normal;text-indent:0;text-align:start;text-decoration:none;text-decoration-line:none;text-decoration-style:solid;text-decoration-color:#000000;letter-spacing:normal;word-spacing:normal;text-transform:none;writing-mode:lr-tb;direction:ltr;text-orientation:mixed;dominant-baseline:auto;baseline-shift:baseline;text-anchor:start;white-space:normal;shape-padding:0;clip-rule:nonzero;display:inline;overflow:visible;visibility:visible;opacity:1;isolation:auto;mix-blend-mode:normal;color-interpolation:sRGB;color-interpolation-filters:linearRGB;solid-color:#000000;solid-opacity:1;vector-effect:none;fill:url(#linearGradient8663);fill-opacity:1;fill-rule:nonzero;stroke:#7f2c02;stroke-width:5;stroke-linecap:round;stroke-linejoin:round;stroke-miterlimit:4;stroke-dasharray:none;stroke-dashoffset:0;stroke-opacity:0.96078431;paint-order:normal;color-rendering:auto;image-rendering:auto;shape-rendering:auto;text-rendering:auto;enable-background:accumulate" d="M 870.28344,9.2201664 C 817.66251,29.772862 732.10092,38.00044 637.32216,41.820504 c -4.6021,0.185515 -13.99032,18.943947 -18.63307,19.109642 -3.94181,0.140669 -3.13304,-18.309215 -7.10048,-18.181647 -82.39606,2.647515 -169.98727,2.585453 -247.8887,4.782744 -6.84493,0.193073 8.59944,9.990937 -18.23991,11.458428 -20.68302,1.130978 -14.31035,-10.269167 -20.31847,-9.963391 -97.50839,4.961876 -178.7969,9.852452 -188.67595,47.927781 8.53754,62.830719 75.30785,150.343759 132.33121,158.228189 8.33944,15.35491 12.68735,29.23587 25.38925,36.07389 8.32743,4.48293 21.13942,-2.81531 24.15279,9.23671 2.77465,11.09671 -8.17997,12.92297 -9.10378,28.44888 -0.28024,4.70724 8.62739,52.22855 8.11396,57.12653 -3.78788,36.13604 -4.76838,90.12502 -9.937,113.66931 l -0.0952,0.37748 -0.0859,0.38003 c -9.27477,41.00712 -30.02874,79.42216 -80.75233,148.26367 -14.59435,19.80736 7.91865,65.44922 -37.56629,70.16675 -32.7713,3.39911 -14.29558,9.1316 -20.03977,17.50874 -31.79104,46.36154 -71.222096,76.21342 -92.101024,107.52244 -5.31792,7.97395 -10.015598,15.14647 -14.104367,21.77194 -2.026918,12.37256 -6.291281,26.43089 -17.222715,38.57906 -0.711525,5.36658 -1.817147,14.35604 5.501995,25.73989 13.259741,-5.25061 25.700384,7.3074 31.058948,15.84789 66.107153,-9.794 145.318863,-17.43732 204.472753,-58.46024 26.31072,-25.16118 45.65751,-55.13326 69.09937,-54.22387 8.15084,-7.98071 10.41105,-12.65743 16.02917,-21.36689 5.61806,-8.70946 12.27506,-19.74702 19.73963,-32.82281 14.92917,-26.15225 35.44524,-59.31348 50.87139,-98.36781 30.7568,-77.86811 47.28117,-171.70613 66.12269,-241.80954 l 0.0747,-1.24839 -0.0159,-1.24964 c -0.93406,-71.93095 -9.8573,-122.99276 -23.26182,-157.23712 -5.3086,-13.56166 -9.49293,-24.38678 -11.66722,-31.25528 0.96285,-0.25331 1.75677,-0.52959 2.8492,-0.7482 9.44592,-1.89001 23.22832,-3.42133 39.34465,-4.42775 32.23243,-2.01296 73.94913,-2.14666 116.56874,-2.9066 6.7801,-0.24774 13.35724,0.6905 19.53952,2.58613 31.229,-3.11716 61.96841,-11.49723 93.19497,-9.64537 24.52958,1.45482 41.30924,-5.37313 62.57672,-11.97886 12.36783,-6.63536 26.58842,-14.26214 44.69641,-24.2404 5.7053,-5.34658 5.34689,-6.09596 6.62038,-7.96328 1.286,-1.88573 2.49172,-3.78958 3.83063,-5.97041 2.67781,-4.36183 5.80221,-9.7431 9.28862,-16.00174 6.97272,-12.51701 15.30201,-28.39665 22.92598,-44.60305 7.62406,-16.20648 14.52735,-32.23334 18.7724,-47.676519 2.12249,-7.721589 4.10103,-14.892177 3.28756,-25.968658 -0.40678,-5.538325 -1.49896,-12.762157 -6.95267,-20.933467 C 904.5594,19.204384 893.24529,12.030521 883.63891,10.50315 878.99438,9.7647021 874.56965,9.3530251 870.28496,9.2201664 Z M 82.005417,945.89546 c -1.371237,0.20315 -2.771286,0.40252 -4.130842,0.60743 l 4.656109,0.22878 c -0.159806,-0.26959 -0.350094,-0.55689 -0.525267,-0.83621 z M 771.1838,280.0122 c -13.02491,1.40686 -26.59714,1.05094 -40.59771,4.13827 -10.26834,2.26431 -21.26041,16.93427 -30.84931,23.59349 2.3559,2.08661 4.23804,4.55961 2.79085,8.47911 -1.03921,2.81422 -15.30631,11.74926 -16.6009,14.90343 -0.97805,3.57047 13.83953,37.40097 12.97743,40.97102 -0.76377,3.16215 -17.2171,-23.93454 -17.93503,-20.77978 -2.44526,10.74627 -4.74813,21.43005 -7.74713,31.92008 -1.70263,5.95555 -3.5123,11.78596 -5.58298,17.47653 -10.51013,26.0765 1.5203,23.9983 -22.33431,58.1475 l -30.42005,16.81242 -4.60732,13.0581 c -12.28697,34.81536 24.83829,51.11204 35.28166,81.19461 8.14,23.44846 2.91706,22.66231 12.782,41.38892 10.32991,-2.68052 7.41454,17.00423 7.99137,18.465 1.25846,3.18617 -12.45223,16.91083 -11.20511,19.74571 1.1093,9.32126 -0.6567,17.02861 1.9809,43.37241 2.63758,26.34438 4.77174,58.52062 7.14094,89.77109 2.36929,31.24987 4.89964,61.3902 8.88586,85.7323 1.99312,12.17136 -13.04568,42.71365 -9.06221,53.20394 1.99173,5.24531 4.26788,10.62045 9.36842,16.92141 5.10039,6.30096 15.56341,14.83894 29.6582,15.55143 l 1.19476,0.0613 1.19344,-0.0243 c 23.23123,-0.43301 32.96631,-14.20403 39.889,-23.82478 6.9227,-9.62008 11.95544,-20.0001 16.90713,-31.86164 9.90352,-23.7224 18.63984,-53.17722 26.0694,-84.25324 7.42933,-31.07607 13.39469,-63.4938 16.79974,-92.26862 3.40529,-28.77495 5.66063,-51.66162 0.0235,-74.68512 -10.61904,-43.37542 -0.21766,-103.89288 5.27804,-168.15943 0.4281,-9.36519 -25.52824,-33.08541 -25.30117,-41.53319 0.21606,-8.03459 26.91408,-0.84351 26.67694,-8.08724 -2.89909,-88.49562 -25.07696,-128.19424 -40.64652,-149.43222 z m -81.43592,609.09777 c -0.11941,0.17745 -0.36768,0.66421 -0.47172,0.80875 -0.68449,0.9515 -0.55689,0.23354 0.47172,-0.80875 z" id="path8624" inkscape:connector-curvature="0" sodipodi:nodetypes="ccccccccccccccccsscccccccccccccccccscccccccccccccccccccccccccccccccccccccccccccccccccssccccc" inkscape:export-xdpi="24.959999" inkscape:export-ydpi="24.959999"></path>
              <path id="path8620" style="display:inline;fill:url(#linearGradient8634);fill-opacity:1;stroke:#fffaed;stroke-width:14.99999905;stroke-linecap:butt;stroke-linejoin:miter;stroke-miterlimit:4;stroke-dasharray:none;stroke-opacity:1;paint-order:normal" d="m 705.1709,402.84926 c 37.98002,23.32887 7.28698,12.26154 52.84691,47.60143 3.75629,11.035 19.77428,0.34962 19.17537,9.96096 -4.14545,66.52917 -19.99489,136.16399 -5.58304,195.03194 12.31326,50.29559 -35.04168,263.52691 -66.76579,264.11814 -23.84411,-1.20547 -5.58164,-211.21209 -19.8558,-276.0399 -1.29466,-5.87975 8.06518,-14.77297 1.43371,-24.08711 -3.08251,-7.00615 -7.53745,-48.93481 -11.1805,-57.31634 -18.78232,-43.21171 -36.28005,-43.03914 -27.6116,-67.60128 69.42394,-54.85642 16.77598,-68.55203 57.54074,-91.66784 z M 340.93816,508.11992 c -7.40496,32.74024 -44.36084,118.00099 -94.27691,166.19247 -10.17894,9.82729 13.1053,9.95936 -14.44119,51.09463 -26.71473,39.89306 -28.65532,20.68784 -31.93608,25.99423 -4.11279,6.65189 -17.72841,1.18716 -21.96095,7.84694 -81.823272,128.74785 -115.057599,153.27228 -96.431484,152.92796 21.357244,2.49945 97.133944,-3.90523 117.834834,-10.30587 10.7655,-3.32869 44.50914,-26.251 75.50335,-48.99696 4.86974,-3.57375 0.23815,-19.27246 4.87234,-22.76082 6.1225,-4.60863 23.40709,7.77066 32.08319,-5.13859 8.02278,-11.93675 14.88796,-12.22183 19.21387,-16.45757 17.26613,-16.90641 134.65598,-240.62229 142.4432,-371.72119 -1.72502,-132.83119 -42.32796,-176.42378 -37.34182,-208.44548 2.32444,-1.98306 -5.01234,-31.35791 -1.20825,-32.89848 1.97041,-0.79798 21.31006,21.03376 23.64249,20.34217 73.55242,-21.80704 321.20555,7.20686 369.62686,-44.46197 5.78953,-5.40386 71.18766,-123.271653 49.65163,-126.695828 -35.02485,-5.568894 -72.59199,29.002405 -238.54589,38.316284 -5.27349,0.296034 -17.81977,31.537894 -23.34873,31.779654 -2.5332,0.11087 -5.09353,-35.520944 -7.68149,-35.422182 -29.16631,1.113594 -58.49881,6.692899 -95.19016,5.962179 -310.4311,-6.182882 -355.55418,6.979948 -340.80162,25.183683 44.60237,31.98282 42.60081,103.20731 100.43637,110.43307 18.93414,2.36559 34.57567,24.90277 46.32923,55.94685 3.72138,9.82885 10.10234,-12.64819 20.21535,26.31097 -14.27442,26.37992 -2.39323,26.3763 -0.22026,57.82735 2.74918,28.35734 2.87506,26.92932 4.82724,39.35279 6.96107,44.29836 2.95636,82.78579 -3.29512,107.79371 z M 735.99741,306.84024 c 0,0 -6.19394,19.5361 -11.91135,23.34811 -5.71754,3.81191 -13.34084,66.23213 21.44048,68.13801 10.95856,6.67089 18.58189,18.10665 21.91716,24.30112 3.33508,6.1943 16.46702,-10.0179 16.67586,-11.91235 0.22086,-2.00254 -29.57966,-111.98783 -48.12215,-103.87489 z" inkscape:connector-curvature="0" sodipodi:nodetypes="ccsscccccccsscccccccccccccccccscscccccccccsc" inkscape:export-xdpi="24.959999" inkscape:export-ydpi="24.959999"></path>
            </g>
          </svg>
