<svg xmlns:dc="http://purl.org/dc/elements/1.1/" xmlns:cc="http://creativecommons.org/ns#" xmlns:rdf="http://www.w3.org/1999/02/22-rdf-syntax-ns#" xmlns:svg="http://www.w3.org/2000/svg" xmlns="http://www.w3.org/2000/svg" xmlns:xlink="http://www.w3.org/1999/xlink" xmlns:sodipodi="http://sodipodi.sourceforge.net/DTD/sodipodi-0.dtd" xmlns:inkscape="http://www.inkscape.org/namespaces/inkscape" width="1280" height="1280" viewBox="0 0 959.99998 960.00002" version="1.1" id="svg4560" inkscape:version="0.92.2 (5c3e80d, 2017-08-06)" sodipodi:docname="team3_render.svg">
            <defs id="defs4554">
              <linearGradient inkscape:collect="always" xlink:href="#linearGradient8806" id="linearGradient8762" gradientUnits="userSpaceOnUse" x1="7095.7017" y1="7889.4121" x2="7417.1118" y2="6977.9072" gradientTransform="matrix(0.94068204,0,0,0.94072661,-6274.1492,-6497.9213)"></linearGradient>
              <linearGradient id="linearGradient8806" inkscape:collect="always">
                <stop id="stop8802" offset="0" style="stop-color:#1674c3;stop-opacity:1"></stop>
                <stop id="stop8804" offset="1" style="stop-color:#a7d1ff;stop-opacity:1"></stop>
              </linearGradient>
            </defs>
            <sodipodi:namedview id="base" pagecolor="#ffffff" bordercolor="#666666" borderopacity="1.0" inkscape:pageopacity="0.0" inkscape:pageshadow="2" inkscape:zoom="0.35355339" inkscape:cx="543.73473" inkscape:cy="705.44251" inkscape:document-units="pt" inkscape:current-layer="layer2" showgrid="true" inkscape:window-width="1848" inkscape:window-height="1057" inkscape:window-x="-8" inkscape:window-y="-8" inkscape:window-maximized="1" units="px" inkscape:snap-global="false">
              <inkscape:grid type="xygrid" id="grid5105" spacingx="6" spacingy="6" empspacing="8"></inkscape:grid>
            </sodipodi:namedview>
            <metadata id="metadata4557">
              <rdf:rdf>
                <cc:work rdf:about="">
                  <dc:format>image/svg+xml</dc:format>
                  <dc:type rdf:resource="http://purl.org/dc/dcmitype/StillImage"></dc:type>
                  <dc:title></dc:title>
                </cc:work>
              </rdf:rdf>
            </metadata>
            <g inkscape:groupmode="layer" id="layer2" inkscape:label="Layer 1">
              <path style="color:#000000;font-style:normal;font-variant:normal;font-weight:normal;font-stretch:normal;font-size:medium;line-height:normal;font-family:sans-serif;font-variant-ligatures:normal;font-variant-position:normal;font-variant-caps:normal;font-variant-numeric:normal;font-variant-alternates:normal;font-feature-settings:normal;text-indent:0;text-align:start;text-decoration:none;text-decoration-line:none;text-decoration-style:solid;text-decoration-color:#000000;letter-spacing:normal;word-spacing:normal;text-transform:none;writing-mode:lr-tb;direction:ltr;text-orientation:mixed;dominant-baseline:auto;baseline-shift:baseline;text-anchor:start;white-space:normal;shape-padding:0;clip-rule:nonzero;display:inline;overflow:visible;visibility:visible;opacity:1;isolation:auto;mix-blend-mode:normal;color-interpolation:sRGB;color-interpolation-filters:linearRGB;solid-color:#000000;solid-opacity:1;vector-effect:none;fill:#00303e;fill-opacity:1;fill-rule:nonzero;stroke:#386e7d;stroke-width:5;stroke-linecap:round;stroke-linejoin:round;stroke-miterlimit:4;stroke-dasharray:none;stroke-dashoffset:0;stroke-opacity:1;color-rendering:auto;image-rendering:auto;shape-rendering:auto;text-rendering:auto;enable-background:accumulate" d="M 280.87777,6.9585071 C 257.57342,8.1268823 240.2169,28.921001 243.23212,52.060159 c 0,0 8.05151,14.451908 8.62967,41.091958 0.6355,29.287103 -5.92168,73.189593 0.77318,126.132513 0.58695,4.64196 20.77671,11.80715 8.24795,33.49841 -2.09144,3.621 -10.83663,8.93327 -11.05556,13.15888 -1.58719,30.6456 -4.48876,62.43521 -9.29242,93.80197 -0.85806,5.60211 -0.5155,11.32278 1.00505,16.78248 16.33829,58.65143 25.76718,108.38581 29.56504,151.20078 0.22519,2.53812 -1.86235,7.84059 0.61638,7.54179 33.30599,-4.01519 0.43898,6.26279 0.61216,9.3377 3.4958,62.07333 -5.52668,108.89567 -22.62875,147.40303 -29.91277,67.35214 -88.65436,115.80749 -167.94299,173.4244 -13.644499,9.92099 -19.594427,27.33896 -14.871354,43.53494 4.723073,16.19588 19.102857,27.6847 35.941174,28.71539 0,0 22.4061,1.37363 48.21184,1.60223 12.90287,0.11434 26.71708,-0.0364 39.77505,-0.87634 13.0578,-0.83956 24.1614,-1.35901 38.51091,-6.51906 20.06333,-7.21458 42.34249,-17.07477 65.19975,-29.40863 7.76847,-4.19194 2.60778,-14.73236 20.2881,-27.79279 47.77473,-35.29157 24.53297,0.87508 35.06678,-6.63178 10.09678,-7.19547 20.04803,-14.85186 29.71023,-22.95432 34.31983,-28.77961 69.33519,-97.99664 84.53085,-96.08462 8.06293,10.00388 19.59544,30.28325 25.57319,20.82061 7.39209,-11.70132 3.75414,3.2098 5.61235,5.14333 6.30096,6.55622 12.70466,23.04477 19.19875,29.20101 102.75492,97.41088 228.15682,135.00567 328.15946,144.73401 2.40585,0.19376 4.82447,0.16915 7.22592,-0.0736 13.43021,-1.35841 26.51211,7.73513 39.01956,-1.0136 2.69945,-1.88818 4.61525,-15.97795 7.02279,-18.68259 8.74766,-9.82704 0.62873,-31.87368 0.19323,-44.33686 -0.11044,-3.16015 6.27729,-12.42436 5.8646,-15.19598 -3.58974,-24.10705 -10.3235,-20.17209 -25.48364,-27.97534 -41.85989,-26.30633 -84.0651,-42.14758 -122.50036,-58.8544 -5.36451,-2.33173 -16.01458,12.29009 -21.70819,11.63174 -10.73727,-1.24144 -23.39157,-21.55043 -10.8423,-23.85007 14.16668,-2.59599 -18.69274,-12.62803 -30.27455,-20.30264 -51.49987,-34.12614 -94.16693,-83.82281 -117.94355,-207.53502 2.63587,-42.14295 -2.70131,-67.07683 -9.47109,-83.23956 -7.09671,-16.94309 -11.12237,-20.20845 -15.39996,-58.6099 -2.41287,-21.64653 -21.70626,-37.37989 -43.39448,-35.38743 -15.77247,7.57959 -27.0162,10.85663 -34.87635,10.85316 -13.27656,-0.009 -16.89937,-9.37144 -16.38581,-23.17197 0.0923,-2.47038 3.38442,-7.68473 0.64176,-7.80913 -13.99189,-0.63448 0.78721,-5.8023 1.30913,-8.85674 3.50747,-20.52475 10.34211,-45.18512 9.65748,-64.29979 -1.254,-26.82857 -10.85769,-51.22397 -23.22122,-77.98108 -12.36369,-26.7571 -28.24093,-54.58151 -44.99291,-80.3843 C 380.35691,88.04002 362.9127,64.463203 346.42777,46.020635 338.1854,36.799224 330.32881,28.871272 321.50717,22.015535 312.68545,15.159798 304.31165,5.7866641 280.87777,6.9583379 Z M 614.66732,21.168622 c -23.99015,0.01184 -42.5693,21.001323 -39.67019,44.81681 0,0 8.89732,74.305958 6.26687,147.490138 -0.76911,21.39898 -4.41187,46.33708 -8.11341,67.88298 -3.70155,21.54597 -7.67622,35.46008 -8.30073,53.57552 -0.57183,16.58172 1.26812,41.96696 5.56508,77.81759 4.29687,35.85048 11.25599,79.45544 21.96264,122.58096 4.36984,17.60158 9.6781,14.44168 15.4156,31.38172 2.38167,7.03191 29.06857,16.69623 31.75187,23.50367 2.07936,5.27515 -20.29893,28.40222 -18.01798,33.50796 5.05803,11.32205 10.63411,22.19035 16.82639,32.44052 21.26905,35.20742 55.06154,67.79786 100.97448,67.25084 16.63302,-0.19803 38.38198,-15.45782 44.54455,-29.56845 6.16269,-14.11083 5.44544,-24.1985 4.83582,-33.75964 -1.00386,-15.74167 -15.33957,-21.00412 -19.44247,-37.71237 -0.88101,-3.58801 2.10393,-23.21688 1.17739,-26.94232 -21.80637,-14.78182 -5.52168,-17.8788 -7.88102,-27.71751 -8.3041,-34.62958 -8.02428,-66.01595 -7.4503,-91.21649 0.89268,-39.19169 3.55727,-68.34364 6.62232,-92.44229 0.53789,-4.22949 4.84216,-9.87389 1.64335,-12.24853 -25.88288,-19.21471 1.24563,-8.64716 1.86724,-12.76764 0.47289,-3.13461 0.94342,-6.19817 1.40698,-9.20712 4.72908,-30.69667 9.26509,-57.97931 5.79661,-91.77593 -4.69857,-45.78238 -29.3827,-94.27219 -56.27192,-139.24775 -13.44455,-22.487764 -27.52753,-43.037805 -41.48001,-59.59643 -6.9762,-8.279438 -13.82106,-15.567849 -21.71284,-22.057554 -7.89169,-6.48962 -15.96831,-13.954621 -34.32389,-15.790276 -1.32663,-0.13261 -2.65911,-0.198831 -3.99243,-0.198408 z M 832.81009,908.64678 c 0.81123,0.50186 1.65526,0.97276 2.45828,1.4829 1.13147,0.71887 2.29837,1.38057 3.4963,1.98239 -2.1612,-1.0849 -4.36088,-0.54355 -5.95458,-3.46529 z" id="path8741" inkscape:connector-curvature="0" sodipodi:nodetypes="ccssssccsssscscccssssscssscccssscssssccccsssscccccccccccccssssscccscsssssssscscccccc" inkscape:export-xdpi="24.959999" inkscape:export-ydpi="24.959999"></path>
              <path style="display:inline;fill:url(#linearGradient8762);fill-opacity:1;stroke:#ffffff;stroke-width:14.99999714;stroke-linecap:round;stroke-linejoin:round;stroke-miterlimit:4;stroke-dasharray:none;stroke-opacity:1" d="m 283.55159,46.886915 c -0.23051,-0.0093 -0.45614,-0.0085 -0.6766,0 0,0 10.08757,77.343475 8.44136,176.777665 -0.0932,5.6011 8.6783,14.03251 8.42479,19.76072 -1.31354,29.67521 -10.95672,16.44749 -5.78876,26.99534 3.84369,7.84533 -4.78877,9.29144 -5.41954,18.19816 -1.79732,25.37671 -4.52537,51.35219 -8.47983,77.17442 13.92271,49.98024 23.14942,94.47788 28.19704,134.42979 1.50855,11.93984 11.96201,31.59518 11.96201,31.59518 -5.72761,7.96728 -7.4577,22.31576 -7.32112,31.53463 2.52576,170.40882 -86.3587,246.29796 -207.62841,334.42126 0,0 86.179,5.25072 110.54064,-3.51011 19.17888,-6.89591 49.12649,-26.83889 71.95118,-39.47586 8.18342,-4.531 10.29965,-19.6184 18.3488,-24.57556 6.94997,-4.27993 20.92453,4.26209 27.57693,-0.55387 54.18663,-39.22899 99.0406,-88.30887 102.99643,-149.19245 14.94721,-72.36561 16.71299,-31.97105 57.6349,33.96635 3.01801,4.86328 15.60291,6.74715 9.71413,14.97093 -4.48604,6.26458 11.35679,3.55949 16.45414,10.19088 4.96323,6.4579 7.97287,22.35871 13.74318,28.93162 9.46366,10.77925 20.06343,21.62991 31.96582,32.27304 57.10934,51.06664 144.55798,105.77916 280.03488,116.67334 27.76696,-2.80841 19.88965,-15.93608 12.46568,-25.19868 -2.58978,-3.23111 6.15796,-22.15312 2.56559,-23.95664 -36.53067,-23.2005 -69.75964,-25.43298 -109.05619,-42.61584 -2.53813,-1.10977 -3.11274,-0.7196 -16.92254,10.8005 -5.87723,4.90286 -27.59119,-13.97331 -26.9477,-14.9632 -14.29084,-25.11671 4.30623,-13.67836 -17.56575,-27.66727 -73.79967,-35.18053 -114.96969,-69.69023 -149.84679,-211.55693 -2.85429,-11.61043 -5.48457,-23.82555 -7.87368,-36.68707 1.87208,-23.92484 1.54296,-38.85323 -0.11154,-49.76018 -0.62628,-4.12901 -10.60129,-6.12249 -11.55965,-9.36916 -1.48089,-5.01721 5.85657,-10.86204 3.8721,-15.41307 -2.62563,-6.0216 -5.53734,-12.50674 -8.32982,-21.76444 -3.08861,-10.23958 -6.03051,-23.8713 -8.27459,-44.01666 -64.74767,5.95596 -19.8756,140.47854 -59.26293,174.97508 C 389.10059,342.03109 428.40825,338.68572 425.38839,274.07241 422.37875,209.67884 312.82734,48.027804 283.55159,46.88421 Z m 331.13019,14.261113 c 0,0 9.31524,76.429582 6.53562,153.763332 -1.77229,49.31111 -15.86347,105.46576 -16.41279,121.39922 -0.80319,23.29402 8.08627,132.94994 35.61872,222.8739 6.27246,0.0917 12.78195,1.1874 18.68774,5.96112 15.32597,9.85715 31.12288,-8.79051 54.34368,7.41527 3.9557,0.0702 9.13051,-1.62625 14.72208,-4.07379 -7.35269,-31.25004 -13.68358,-64.32416 -13.03267,-92.89611 0.77731,-34.12332 2.90731,-61.37779 5.46079,-84.14594 1.48073,-13.20335 -1.60943,-17.79845 -0.76952,-37.88783 1.39779,-33.42762 9.06652,-20.88275 10.51301,-31.11912 2.95165,-20.88824 4.52029,-38.95649 2.3301,-60.29788 -4.11121,-40.05942 -40.01548,-110.474 -72.6414,-156.43306 -2.44501,-3.44415 -4.09215,-19.223431 -6.48556,-22.369799 C 638.18561,63.13693 623.40727,62.020653 614.68178,61.148028 Z m 91.97554,526.488222 c -31.9934,18.23621 -61.58092,3.88613 -41.19668,31.67755 -0.67651,1.56283 5.22962,17.24283 4.49763,18.41476 17.86137,30.2016 40.00448,49.8933 67.23992,49.56879 8.02442,-0.0988 17.94429,-9.93557 11.60839,-21.48181 -7.12971,-12.99256 -24.80229,-32.28502 -15.1309,-49.70773 4.63895,-8.35648 -2.08243,-16.37357 -2.63136,-25.13219 -6.82813,2.02281 -13.85838,2.84968 -20.98898,-3.17775 -1.17643,-0.12491 -2.30777,-0.17709 -3.39802,-0.16162 z" id="path8739" inkscape:connector-curvature="0" sodipodi:nodetypes="ccccccccccccccccssssscscccccccccccccscccsccccccccccsscccccssccc" inkscape:export-xdpi="24.959999" inkscape:export-ydpi="24.959999"></path>
            </g>
          </svg>
