<svg xmlns:dc="http://purl.org/dc/elements/1.1/" xmlns:cc="http://creativecommons.org/ns#" xmlns:rdf="http://www.w3.org/1999/02/22-rdf-syntax-ns#" xmlns:svg="http://www.w3.org/2000/svg" xmlns="http://www.w3.org/2000/svg" xmlns:xlink="http://www.w3.org/1999/xlink" xmlns:sodipodi="http://sodipodi.sourceforge.net/DTD/sodipodi-0.dtd" xmlns:inkscape="http://www.inkscape.org/namespaces/inkscape" width="1280" height="1280" viewBox="0 0 959.99998 960.00002" version="1.1" id="svg4560" inkscape:version="0.92.2 (5c3e80d, 2017-08-06)" sodipodi:docname="team2_render.svg">
            <defs id="defs4554">
              <linearGradient inkscape:collect="always" xlink:href="#linearGradient8693" id="linearGradient8695" x1="5756.8315" y1="7903.4907" x2="6061.7969" y2="6945.1528" gradientUnits="userSpaceOnUse" gradientTransform="matrix(0.89414734,0,0,0.89414304,-4874.4545,-6178.0196)"></linearGradient>
              <linearGradient inkscape:collect="always" id="linearGradient8693">
                <stop style="stop-color:#9d3783;stop-opacity:1" offset="0" id="stop8689"></stop>
                <stop style="stop-color:#e2829f;stop-opacity:1" offset="1" id="stop8691"></stop>
              </linearGradient>
            </defs>
            <sodipodi:namedview id="base" pagecolor="#ffffff" bordercolor="#666666" borderopacity="1.0" inkscape:pageopacity="0.0" inkscape:pageshadow="2" inkscape:zoom="0.35355339" inkscape:cx="543.73473" inkscape:cy="705.44251" inkscape:document-units="pt" inkscape:current-layer="layer2" showgrid="true" inkscape:window-width="1848" inkscape:window-height="1057" inkscape:window-x="-8" inkscape:window-y="-8" inkscape:window-maximized="1" units="px" inkscape:snap-global="false">
              <inkscape:grid type="xygrid" id="grid5105" spacingx="6" spacingy="6" empspacing="8"></inkscape:grid>
            </sodipodi:namedview>
            <metadata id="metadata4557">
              <rdf:rdf>
                <cc:work rdf:about="">
                  <dc:format>image/svg+xml</dc:format>
                  <dc:type rdf:resource="http://purl.org/dc/dcmitype/StillImage"></dc:type>
                  <dc:title></dc:title>
                </cc:work>
              </rdf:rdf>
            </metadata>
            <g inkscape:groupmode="layer" id="layer2" inkscape:label="Layer 1">
              <path style="color:#000000;font-style:normal;font-variant:normal;font-weight:normal;font-stretch:normal;font-size:medium;line-height:normal;font-family:sans-serif;font-variant-ligatures:normal;font-variant-position:normal;font-variant-caps:normal;font-variant-numeric:normal;font-variant-alternates:normal;font-feature-settings:normal;text-indent:0;text-align:start;text-decoration:none;text-decoration-line:none;text-decoration-style:solid;text-decoration-color:#000000;letter-spacing:normal;word-spacing:normal;text-transform:none;writing-mode:lr-tb;direction:ltr;text-orientation:mixed;dominant-baseline:auto;baseline-shift:baseline;text-anchor:start;white-space:normal;shape-padding:0;clip-rule:nonzero;display:inline;overflow:visible;visibility:visible;opacity:1;isolation:auto;mix-blend-mode:normal;color-interpolation:sRGB;color-interpolation-filters:linearRGB;solid-color:#000000;solid-opacity:1;vector-effect:none;fill:#3b1748;fill-opacity:1;fill-rule:nonzero;stroke:#714572;stroke-width:5;stroke-linecap:round;stroke-linejoin:round;stroke-miterlimit:4;stroke-dasharray:none;stroke-dashoffset:0;stroke-opacity:1;color-rendering:auto;image-rendering:auto;shape-rendering:auto;text-rendering:auto;enable-background:accumulate" d="m 457.77901,7.2568123 c -8.44108,0.1939609 -14.48565,3.2339807 -19.14744,5.2652257 -14.91736,6.500241 -24.28063,14.754922 -35.21576,24.241475 -21.87025,18.972851 -43.20911,41.77622 -55.018,56.559687 -26.08016,32.6498 -33.68812,74.38622 -40.02001,118.21206 -3.89016,26.9256 -6.13055,54.3648 -7.33387,79.10024 -0.24809,5.09829 32.14871,10.08173 31.98346,14.92203 -0.33812,9.8998 -24.22397,12.53285 -24.28436,20.99496 -0.10435,14.64303 -13.58479,44.87011 -20.98134,59.18171 -7.39647,14.31153 -9.77602,16.51243 -18.3526,15.93741 -35.91335,-2.40749 -65.9123,13.02943 -99.94025,33.33477 -34.02802,20.30534 -69.3234,47.89115 -99.920932,79.30978 -17.060596,17.51847 -17.04247,46.55375 -29.892486,66.24688 -10.196042,15.62571 -24.8854,2.62754 -30.7506719,19.73226 -7.5766247,22.09554 9.3289729,41.19629 15.2413459,64.96626 4.432748,17.82193 -15.0029168,59.88241 -0.777796,73.81634 10.852886,10.63048 11.420204,8.4744 16.466685,11.21687 5.046396,2.74254 11.083862,5.8018 18.099437,9.22443 14.031064,6.84519 31.8249,15.0411 50.416368,23.14471 18.59137,8.10348 37.88599,16.07902 55.03884,22.44784 17.15292,6.36883 29.52285,11.36394 46.16385,13.18168 2.16601,0.23689 4.34821,0.28719 6.52279,0.15005 164.60129,-10.3997 272.22005,-72.3253 342.35886,-129.8253 33.30494,-27.67754 26.6003,-32.89124 43.52165,-4.2175 29.21455,48.35248 43.86281,102.69322 52.03683,145.22143 4.08712,21.26403 6.55035,39.31256 8.89263,53.43554 1.17114,7.06153 2.04562,12.76593 4.30138,20.05005 1.12775,3.64215 1.96551,7.68611 7.27891,14.93669 2.44264,3.33333 6.30856,7.72761 13.06117,11.45445 3.76891,4.90077 8.73221,13.95452 27.4566,20.79939 9.97325,3.64579 26.34596,3.62919 38.04491,-2.73316 11.69895,-6.36242 17.84,-15.24524 22.24715,-23.42938 8.81424,-16.36793 12.8983,-34.35802 17.23151,-62.59339 5.28334,-34.42559 7.4219,-107.67956 9.89148,-179.4381 1.23492,-35.87923 2.33542,-70.30905 3.35308,-96.01386 0.5089,-12.85242 1.00224,-23.56549 1.45301,-30.86715 0.15767,-2.55216 0.28611,-3.97027 0.41563,-5.51323 11.1529,-23.99542 16.97429,-43.00132 13.93267,-64.04124 -1.86121,-12.87444 -25.57553,-24.01864 -33.7035,-32.26951 1.10418,-3.74446 18.08863,-7.62767 18.50193,-11.52619 1.39755,-13.18138 -0.97555,-26.53682 -5.91573,-35.28717 -8.84155,-15.66078 -20.09038,-24.41502 -31.08032,-32.1926 -10.98996,-7.77767 -22.12538,-13.80731 -31.92214,-18.398 -24.75842,-12.15695 -47.46148,-14.50582 -71.95442,2.2546 -10.07704,7.02071 -6.34929,22.34896 -12.53715,30.3676 -6.18806,8.0188 -5.34166,-21.14607 -25.98801,16.66048 -3.88102,7.9435 -8.41126,11.79858 -7.92677,30.28382 -0.0415,-1.58015 19.09499,28.68614 7.00973,45.42633 -42.23397,54.81758 -78.07541,70.10214 -136.84356,101.07939 -8.21061,6.01465 -69.13937,56.19657 -77.23807,61.23582 -4.80806,2.99156 -22.68236,-0.36996 -39.27338,4.53869 -17.9541,5.31216 -34.76381,18.87512 -41.74619,21.2095 -20.82659,6.96271 -57.96893,7.48438 -80.96019,12.30536 -28.11515,5.89544 -12.73745,-22.61643 -36.85809,-26.0193 -18.86258,-2.66111 -45.31161,4.38876 -57.08433,-2.25029 -8.78968,-4.9568 -24.48475,-7.23123 -30.77022,-20.03093 1.69162,-8.6875 21.13404,-15.69508 15.25709,-28.84724 8.59133,-10.476 21.98476,-21.82907 30.02902,-28.67369 7.94228,-6.75789 66.12829,-14.17405 105.13961,-17.88295 19.50562,-1.85449 37.79901,-0.80828 48.54764,2.00136 7.55985,1.97603 9.26942,3.43616 9.40943,3.41583 4.94628,14.51928 15.54694,28.81861 30.20893,35.8793 15.99533,7.70271 32.52681,6.42638 45.27502,2.31398 25.4964,-8.22488 43.82233,-25.98771 53.57886,-51.91267 21.00752,-55.82035 16.90349,-90.14407 62.11006,-167.35847 4.87786,-8.33244 6.40143,-18.20903 4.26124,-27.6241 -14.00871,-61.61808 -22.02432,-110.53629 -26.40084,-149.38109 -3.1913,-28.32582 -11.78237,16.81329 -18.30305,-61.54414 -0.0627,-4.97792 13.57504,-17.96272 13.65195,-22.24511 0.60543,-33.726914 5.0015,-47.62054 4.8388,-69.018667 -0.0432,-5.60691 -0.69149,-12.578239 -4.7624,-20.7888 C 494.03361,23.179302 485.12382,14.501041 475.77891,10.814081 468.77029,8.0489183 462.84352,7.1403511 457.77901,7.2568123 Z M 844.14844,149.35208 c -12.13803,2.70215 -36.3314,-0.51871 -39.00197,8.33549 -1.71091,10.67869 -5.66214,16.2845 -13.51868,17.21237 -15.71333,1.8556 -41.97111,-10.75119 -64.61262,-8.51716 -45.2834,4.46812 -96.34399,9.39465 -131.32793,16.14 -20.94517,4.03854 -31.06422,18.01448 -36.92382,27.84762 -19.02656,31.50306 -29.63119,95.07931 13.92562,101.97949 53.90683,-1.71701 114.04408,4.8713 173.10954,9.81332 0.99733,0.0838 3.17724,0.66294 3.51755,-0.27756 5.60827,-15.50053 2.26732,0.75663 3.66308,0.87003 55.02193,4.47144 108.85283,7.15809 155.56011,-0.0254 18.3648,-5.97781 42.0179,-20.08215 48.61574,-47.14682 4.63535,-21.28326 -6.96882,-38.88738 -17.40439,-54.62998 -19.19325,-27.88209 -44.24804,-58.30458 -72.85911,-68.20462 -7.22343,-2.38996 -14.93854,-3.45742 -22.74312,-3.39677 z m -36.30376,397.48684 c -0.0534,0.32549 0.26147,0.56435 -0.17298,2.1987 0.0375,-0.42859 0.0968,-1.40211 0.1275,-1.70102 0.0711,-0.69308 0.13892,-1.06196 0.0457,-0.49768 z m -475.47684,12.27179 c 0.29221,1.08931 0.6969,2.1799 1.05476,3.27091 -0.0364,-0.085 -0.0415,-0.0703 -0.0788,-0.17296 z m 414.60315,322.23551 c 1.77011,0.88553 1.33414,0.93948 0,0 z" id="path8683" inkscape:connector-curvature="0" sodipodi:nodetypes="scscssscccccssscscccccccccccccsccccccccscccccccccssssssccsscccscccscscccscccccccssscccccccccccccccc" inkscape:export-xdpi="24.959999" inkscape:export-ydpi="24.959999"></path>
              <path style="display:inline;fill:url(#linearGradient8695);fill-opacity:1;stroke:#f1f0ff;stroke-width:14.99999809;stroke-linecap:round;stroke-linejoin:round;stroke-miterlimit:4;stroke-dasharray:none;stroke-opacity:1" d="m 459.96502,45.813103 c -0.20465,-0.0093 -0.41428,0 -0.63001,0.01101 -16.62922,0.93296 -65.96177,52.082662 -81.24478,71.215427 -24.57488,30.76534 -34.76195,103.31994 -38.44434,163.9251 -0.5115,8.41909 11.69819,12.90297 11.41657,20.71681 -0.36387,10.09816 -13.14927,23.27514 -13.21007,31.81086 -0.25393,35.61351 -14.90771,84.75932 -47.36871,103.25692 -0.86851,27.02596 -3.24196,55.06695 -4.44774,82.11764 39.56322,-1.66366 74.3394,6.39385 83.03651,30.39851 8.67433,32.33463 47.67735,14.31677 58.07066,-13.29954 18.16948,-48.2795 16.62091,-90.7428 64.88151,-173.17366 -19.53171,-85.91182 -26.78376,-132.2667 -29.69293,-178.09466 -0.23776,-3.7448 -13.61053,-2.97802 -19.99333,-27.6673 -7.01785,-27.14657 17.88388,-10.38158 17.76826,-15.43972 -1.17461,-51.403201 4.85845,-76.126783 4.75961,-89.123183 -0.0347,-4.563672 -1.83281,-6.579002 -4.90121,-6.653707 z m 383.889,141.232187 c -6.45495,0.0144 -13.46832,1.75708 -21.43317,5.49985 -4.75043,2.23233 31.11309,19.83611 -33.26461,18.30533 -4.50917,-0.10723 -24.37059,-10.04268 -29.22673,-9.5505 -50.47635,5.11566 -118.69164,11.14006 -157.04857,18.53573 -18.19151,3.50772 -24.17604,54.40909 -25.57485,54.79337 0,0 95.71042,11.71583 153.69583,16.07436 3.42842,0.25757 7.45894,2.71842 9.86233,0.692 17.88751,-15.0822 23.78501,1.18384 29.23975,0.66945 28.44583,-2.68251 140.64844,13.4121 150.13038,-25.48307 1.55186,-6.36582 -21.3364,-40.06319 -37.69823,-57.44573 -12.98198,-13.79155 -24.48078,-22.12247 -38.68213,-22.09079 z M 701.93616,383.90792 c -21.83361,0.3122 -45.1831,40.63219 -44.9203,50.65836 5.52582,55.34739 48.74651,63.79121 -203.46489,218.13805 -14.99545,9.17652 -79.058,29.17939 -98.42819,39.48729 -41.69045,22.18631 -60.64035,29.58118 -71.72066,24.29875 -24.4076,-11.63633 -90.74205,37.0672 -81.87884,-20.38038 -20.46323,-2.88699 -33.2742,-11.44124 -49.58326,-19.89353 -8.65256,17.14807 -26.0052,45.65086 -40.29688,66.36259 39.21519,17.50152 85.49872,36.13161 102.03621,37.93825 156.37418,-9.88 254.65625,-67.17469 320.66317,-121.28737 75.97385,-62.28338 108.12969,-109.93593 122.43728,-125.56919 6.96383,-7.6091 26.74088,-28.37842 28.24287,-18.81174 0.5735,3.65214 -16.07427,29.44758 -15.6939,36.00677 0.3849,6.63567 -13.91342,38.91601 -13.38311,48.75652 0.90573,16.8054 -33.1849,45.73744 -21.46342,65.13739 65.51305,108.42916 61.87487,234.86207 72.47827,231.72778 8.33506,-2.4639 31.85932,64.37478 47.98536,-40.70063 8.02418,-52.2845 11.9864,-308.80121 15.76198,-316.59023 46.32325,-95.57386 -44.3452,-44.85326 -4.55287,-92.96589 22.33026,-26.99945 -51.63236,-61.08541 -62.1114,-62.21589 -0.70029,-0.0754 -1.40306,-0.10698 -2.10742,-0.0969 z M 250.9695,439.55523 c -37.46717,1.84466 -95.52884,43.1818 -148.36261,95.40447 8.75462,9.87744 23.72696,25.31342 36.70021,39.00655 7.37842,-6.97437 14.28195,-12.69325 18.47195,-16.25824 22.0194,-21.01012 87.99405,-42.26934 107.27487,-36.33989 6.86295,-44.22911 -4.9251,-55.95798 -14.08442,-81.81289 z M 84.466286,554.03648 c -27.474485,26.75457 0.553934,60.4311 22.910884,67.44833 1.61682,-12.84419 6.05737,-18.12916 2.82057,-33.98229 -3.61929,-17.72684 -10.778685,-23.43581 -25.731454,-33.46604 z m -43.369617,63.37507 c -2.015171,4.37234 9.541738,22.06167 8.021636,26.37904 44.247437,10.91272 -0.736971,-50.45857 -8.021636,-26.37904 z m 63.046151,34.27207 c -29.218442,6.75168 -25.800732,10.69146 -54.496499,19.0533 0.733667,16.54319 -13.026275,28.12659 0.313642,41.19329 2.215401,2.17012 14.305152,8.52484 31.06693,16.53659 22.693207,-20.27449 27.424427,-31.26038 44.955117,-46.52673 0.3,-14.32824 -1.66072,-30.68029 -21.83919,-30.25645 z" id="path8680" inkscape:connector-curvature="0" sodipodi:nodetypes="cccssscccccssscccccsscsssscccccssscccccsssccscccccccccccccscccccccccc" inkscape:export-xdpi="24.959999" inkscape:export-ydpi="24.959999"></path>
            </g>
          </svg>
