<svg xmlns:dc="http://purl.org/dc/elements/1.1/" xmlns:cc="http://creativecommons.org/ns#" xmlns:rdf="http://www.w3.org/1999/02/22-rdf-syntax-ns#" xmlns:svg="http://www.w3.org/2000/svg" xmlns="http://www.w3.org/2000/svg" xmlns:xlink="http://www.w3.org/1999/xlink" xmlns:sodipodi="http://sodipodi.sourceforge.net/DTD/sodipodi-0.dtd" xmlns:inkscape="http://www.inkscape.org/namespaces/inkscape" width="1280" height="1280" viewBox="0 0 959.99998 960.00002" version="1.1" id="svg4560" inkscape:version="0.92.2 (5c3e80d, 2017-08-06)" sodipodi:docname="team4_render.svg">
            <defs id="defs4554">
              <linearGradient inkscape:collect="always" xlink:href="#linearGradient8794" id="linearGradient8868" gradientUnits="userSpaceOnUse" x1="8508.0771" y1="7905.7305" x2="8819.6406" y2="7052.6055" gradientTransform="matrix(0.91540391,0,0,0.91544192,-7344.6246,-6366.13)"></linearGradient>
              <linearGradient inkscape:collect="always" id="linearGradient8794">
                <stop style="stop-color:#28693e;stop-opacity:1" offset="0" id="stop8790"></stop>
                <stop style="stop-color:#72eabb;stop-opacity:1" offset="1" id="stop8792"></stop>
              </linearGradient>
            </defs>
            <sodipodi:namedview id="base" pagecolor="#ffffff" bordercolor="#666666" borderopacity="1.0" inkscape:pageopacity="0.0" inkscape:pageshadow="2" inkscape:zoom="0.35355339" inkscape:cx="543.73473" inkscape:cy="705.44251" inkscape:document-units="pt" inkscape:current-layer="layer2" showgrid="true" inkscape:window-width="1848" inkscape:window-height="1057" inkscape:window-x="-8" inkscape:window-y="-8" inkscape:window-maximized="1" units="px" inkscape:snap-global="false">
              <inkscape:grid type="xygrid" id="grid5105" spacingx="6" spacingy="6" empspacing="8"></inkscape:grid>
            </sodipodi:namedview>
            <metadata id="metadata4557">
              <rdf:rdf>
                <cc:work rdf:about="">
                  <dc:format>image/svg+xml</dc:format>
                  <dc:type rdf:resource="http://purl.org/dc/dcmitype/StillImage"></dc:type>
                  <dc:title></dc:title>
                </cc:work>
              </rdf:rdf>
            </metadata>
            <g inkscape:groupmode="layer" id="layer2" inkscape:label="Layer 1">
              <path style="color:#000000;font-style:normal;font-variant:normal;font-weight:normal;font-stretch:normal;font-size:medium;line-height:normal;font-family:sans-serif;font-variant-ligatures:normal;font-variant-position:normal;font-variant-caps:normal;font-variant-numeric:normal;font-variant-alternates:normal;font-feature-settings:normal;text-indent:0;text-align:start;text-decoration:none;text-decoration-line:none;text-decoration-style:solid;text-decoration-color:#000000;letter-spacing:normal;word-spacing:normal;text-transform:none;writing-mode:lr-tb;direction:ltr;text-orientation:mixed;dominant-baseline:auto;baseline-shift:baseline;text-anchor:start;white-space:normal;shape-padding:0;clip-rule:nonzero;display:inline;overflow:visible;visibility:visible;opacity:1;isolation:auto;mix-blend-mode:normal;color-interpolation:sRGB;color-interpolation-filters:linearRGB;solid-color:#000000;solid-opacity:1;vector-effect:none;fill:#132b0d;fill-opacity:1;fill-rule:nonzero;stroke:#52654a;stroke-width:5;stroke-linecap:round;stroke-linejoin:round;stroke-miterlimit:4;stroke-dasharray:none;stroke-dashoffset:0;stroke-opacity:1;paint-order:stroke fill markers;color-rendering:auto;image-rendering:auto;shape-rendering:auto;text-rendering:auto;enable-background:accumulate" d="m 256.13955,9.0989832 c -1.46361,0.00845 -2.81781,0.083646 -4.0871,0.1626443 -20.30837,1.2770745 -30.00249,7.6231585 -44.50073,15.1816815 -28.99655,15.117131 -63.05734,38.30767 -88.0899,67.424545 -6.8699,7.991368 -10.20466,18.427626 -9.24154,28.922206 0,0 2.57769,28.06666 5.94937,63.66361 0.21645,2.28564 21.67533,4.60221 0.6588,6.94454 -1.24385,0.13856 0.23766,2.49914 0.35754,3.75889 0.58099,6.10402 1.17906,12.35912 1.786,18.67183 4.63428,48.20555 9.23444,96.52062 12.08621,115.06325 -0.33895,-2.20343 -2.55742,21.03857 -7.68619,49.15313 -5.1287,28.11456 -10.76514,64.28851 -8.43346,105.09879 2.17563,38.0819 7.71593,81.13144 15.54939,116.79752 3.91668,17.83307 8.18304,33.58379 14.20837,47.68881 3.0127,7.05253 6.22504,13.75438 12.30079,21.17851 4.41852,5.39944 11.89917,12.69341 22.97807,16.29555 -4.01028,4.72522 -8.02801,9.3677 -11.99682,14.07855 -28.58967,33.93478 -56.08191,67.64853 -77.269507,96.78653 -10.593631,14.56887 -19.60741,27.91888 -26.691571,40.45111 -7.083908,12.53218 -13.670965,22.16503 -14.562357,41.77605 9.225749,52.55488 70.711425,57.73043 111.856375,31.65784 70.82817,-46.44715 171.90065,-130.09958 258.79822,-217.01702 1.04008,-1.0409 2.02018,-2.13983 2.93581,-3.29173 69.83437,-60.1416 151.50676,-177.37365 133.81874,-91.92855 -3.87723,9.92756 -7.04453,19.67937 -8.8519,30.28285 -1.71604,10.06713 -6.61823,22.20641 6.3739,41.30752 0.50175,0.81922 1.03375,1.61956 1.59481,2.39949 0.16043,0.21697 0.24973,0.40702 0.41473,0.62576 l -0.049,-0.14118 c 1.41088,1.91067 2.99395,3.6882 4.72908,5.31023 16.31861,15.05472 36.21183,17.45248 50.77977,17.03763 117.0077,-8.7121 -27.21631,49.32811 -60.6884,66.88448 -19.18254,10.04635 -38.32537,20.31305 -55.32645,31.24655 -17.00107,10.93349 -32.27124,20.93844 -44.31305,40.08095 1.53516,-2.44042 -3.32977,4.63777 -8.0134,11.11592 -4.68371,6.4781 -10.48194,14.56317 -16.00534,22.79136 -5.52341,8.2282 -10.64128,16.01129 -15.03623,25.27467 -2.19743,4.63177 -5.00467,8.46679 -5.84639,20.46513 -0.42081,5.99925 -0.47488,16.36995 7.92757,27.70292 8.40245,11.33305 24.07974,16.37063 32.77933,16.37063 0.97308,9e-5 1.94575,-0.0363 2.91605,-0.10899 131.00937,-9.8483 270.96794,-44.06908 372.09196,-109.26307 34.10446,-21.98693 51.36862,-55.13646 60.31481,-83.49292 8.94622,-28.35662 12.27997,-53.74662 17.24797,-68.33991 15.22894,-44.73454 26.1845,-90.60346 0.31825,-131.40705 -25.86636,-40.80379 -75.40387,-56.00296 -146.65067,-61.90318 -33.77193,-2.7968 -62.54545,-4.47124 -90.38009,0.10367 -14.0051,2.30194 -27.96508,6.80825 -40.87848,13.60467 59.7491,-39.57774 114.09646,-68.3744 143.99556,-82.10191 12.37988,-5.6846 20.88523,-17.42997 22.42377,-30.96586 3.9629,-34.87828 13.93743,-41.29179 27.73394,-50.61574 6.89821,-4.66194 15.11007,-8.42227 25.90122,-16.07213 5.39566,-3.82497 11.88261,-8.89364 17.70922,-17.70085 5.82645,-8.80729 9.61193,-21.97599 8.78559,-33.54241 v 0 c -1.60334,-22.4563 -8.16379,-33.58481 -16.30552,-54.24697 -8.14182,-20.66233 -18.47777,-44.71577 -28.69587,-68.02891 -10.21802,-23.31305 -20.3164,-45.85986 -27.73918,-62.813211 -3.71147,-8.476682 -6.76979,-15.602444 -8.69637,-20.341688 -0.39944,-0.982624 -0.48156,-1.241089 -0.77235,-1.988324 0.10138,1.638365 0.19313,3.517012 0.19313,6.719203 0,-7.827127 -3.30367,-18.179152 -9.0218,-25.103067 -5.71806,-6.923915 -12.23043,-10.23831 -16.90105,-11.956256 -9.34099,-3.435807 -13.55548,-2.629598 -16.86523,-2.447606 -6.61949,0.363732 -9.51079,1.331486 -12.9068,2.24559 -6.79193,1.828375 -13.44311,4.220978 -21.33866,7.250217 -15.79093,6.058647 -35.46863,14.571237 -55.05289,23.765835 -19.58426,9.194505 -38.73131,18.864878 -53.92299,27.922687 -7.59589,4.52894 -13.96548,8.47828 -20.81824,14.47896 -3.42651,3.00035 -7.28143,5.87142 -11.979,14.58105 32.57293,70.19126 -1.79841,6.80283 -2.94934,10.1043 -6.39874,18.35549 -17.60362,34.71978 -27.24824,50.23968 -11.93887,19.18105 -26.78315,42.17675 -43.168,67.06082 -12.13158,18.42484 -1.36129,53.63492 -21.68656,65.94274 -32.78494,19.85265 -126.84541,154.43652 -145.891,180.15393 -41.24844,64.55997 -26.31054,-34.99311 -20.68712,-60.84772 4.57887,-21.02108 8.83164,-40.39898 12.02539,-56.74672 3.19375,-16.34765 5.74652,-27.57957 5.59428,-42.10307 -0.15241,-14.55188 -1.40446,-28.76843 -1.33966,-42.65023 0.0135,-2.67961 -5.68899,5.28869 -9.28117,-9.91234 -4.36554,-18.47335 8.04441,-10.53639 7.65721,-15.71482 -3.8425,-51.38713 -10.68901,-96.77461 -16.57088,-133.03051 -4.18652,-25.80519 -7.87501,-47.130842 -9.62248,-61.422162 -0.61808,-5.054731 -0.88674,-8.746545 -1.02454,-11.548597 4.55411,-6.937687 8.8323,-16.606015 3.46503,-34.767086 C 293.75643,27.330689 282.00646,16.171517 272.7966,12.440753 265.8891,9.6426798 260.52782,9.0712703 256.13692,9.0954346 Z m 37.85884,60.9305088 c 0.17302,-0.01521 0.10899,0.794896 -0.2396,2.054396 -0.009,-0.306794 -0.0566,-0.952293 -0.0541,-1.185402 0.009,-0.543367 0.16373,-0.858348 0.29316,-0.868994 z m 189.3634,854.127128 c -0.45224,1.66041 -0.81459,1.50689 -0.58995,1.03349 0.0693,-0.14431 0.46931,-0.80545 0.58995,-1.03349 z" id="path8786" inkscape:connector-curvature="0" sodipodi:nodetypes="cccccsssccscccccscccccccccccccccscsscccccsssssscccccsccscccccccsscscscscssccscsssccccccccccccccc" inkscape:export-xdpi="24.959999" inkscape:export-ydpi="24.959999"></path>
              <path style="display:inline;fill:url(#linearGradient8868);fill-opacity:1;stroke:#ffffff;stroke-width:14.99999809;stroke-linecap:butt;stroke-linejoin:miter;stroke-miterlimit:4;stroke-dasharray:none;stroke-opacity:1" d="m 255.29605,48.061877 c -12.84538,0.112035 -48.79877,19.080244 -78.659,43.019961 -5.69771,4.568403 -4.34798,12.351912 -9.39963,17.185962 -4.13853,3.9604 -14.8185,4.94362 -18.27534,8.96444 0,0 8.24826,89.75793 14.51369,151.64556 0.23141,2.28707 10.54134,5.85586 11.99818,13.64581 1.11704,5.97542 -4.36158,30.8093 -4.36158,30.8093 0.54374,23.59196 -10.11916,37.95687 -9.11128,44.51131 4.10146,26.66605 -12.32293,51.2882 -8.22148,123.08175 4.10212,71.7932 21.82006,165.62974 40.18258,167.4965 3.85907,0.39211 25.70869,-8.73668 17.82902,-30.02213 8.61561,-31.11312 26.53874,-54.58459 56.92354,-73.55483 2.86299,-4.92412 -3.9449,-15.49338 -4.03826,-21.17764 -0.58911,-13.84833 -14.83161,-75.1033 -11.37283,-92.73334 3.13073,-15.9606 31.89521,-75.43053 31.82517,-82.11517 -0.324,-30.89447 -2.14066,-60.40068 -4.73855,-87.96673 -0.93642,-9.93996 -3.7527,8.32435 -10.05318,-21.52785 -10.54827,-49.97538 3.99229,-31.41864 2.40433,-42.61694 -10.61695,-74.8423 -23.08807,-126.325853 -15.73035,-137.657969 5.0132,-7.721252 3.70877,-11.035393 -1.71503,-10.987994 z m 490.89977,35.149752 c -17.08547,0.939113 -153.47138,62.836961 -143.85818,72.451721 3.82408,3.82473 -26.48865,53.44381 -68.13635,117.04195 -9.05898,13.83407 11.93439,26.7982 -20.20936,67.43257 -44.07393,55.71669 -44.69869,29.82212 -62.98151,56.60004 -30.35946,44.4656 -59.5379,86.50226 -81.67721,117.96601 22.1791,25.26623 47.3165,57.3014 60.63846,74.722 4.7503,6.21225 9.43866,12.43405 14.08181,18.66683 28.86134,-28.76302 60.0473,-55.28012 91.37477,-79.19855 67.24158,-51.3394 126.00915,-82.38638 172.81968,-106.44565 1.85451,-0.95322 4.9811,-4.73223 5.46443,-2.78793 14.01448,8.88747 -9.1498,-44.67615 -7.3633,-41.55693 3.93181,5.77941 20.50734,12.00501 25.25002,18.86758 7.92411,11.46867 6.28815,-27.77051 16.43275,-12.8761 1.60368,2.35433 20.19821,-24.3642 22.52634,-25.433 10.25443,-90.25456 61.55014,-42.60402 59.49945,-71.32125 -2.05068,-28.71748 -82.11449,-195.266065 -82.11449,-203.470949 0,-0.512773 -0.60829,-0.721034 -1.74731,-0.658342 z M 723.08376,539.79509 c -16.81369,0.0549 -30.90792,1.35725 -43.77738,3.94089 -5.13402,12.67434 -4.18188,28.72652 -2.79153,43.46404 2.04249,21.65069 7.96052,42.55982 11.21155,64.11506 80.82367,117.54621 -145.49448,121.96227 -203.26792,202.05621 -4.74201,7.53732 -48.61135,64.09723 -37.12464,64.09723 67.52312,-5.07594 137.75958,-17.24359 202.60527,-36.58187 6.91561,-2.06241 -15.08025,-12.63167 16.00137,-22.36262 28.88546,-9.04226 13.70916,12.87822 18.23632,11.29571 43.15609,-15.0884 83.06748,-33.58697 117.08543,-55.51852 49.61574,-31.98634 47.89387,-90.78448 61.81237,-131.67047 6.72688,-19.75976 13.7133,-39.21758 3.05799,-55.19491 -8.13844,-12.20203 9.86859,-26.05172 4.8951,-37.26294 -4.45367,-10.04052 -36.85552,-42.07502 -31.86023,-29.99743 8.50789,20.56795 -41.0722,-11.33195 -29.32612,-12.77591 -7.72988,-0.80949 -23.35994,-2.72025 -27.11188,-3.69586 -9.62764,-2.50261 -20.62469,-2.37688 -32.36832,-3.07031 -9.88624,-0.58432 -18.91725,-0.86586 -27.27738,-0.8383 z m 86.75758,7.60447 c 3.55712,0.37286 5.60096,0.53416 3.76165,0.22518 -1.64431,-0.27595 -2.87187,-0.33433 -3.76165,-0.22518 z m -465.48763,2.4793 c -3.13352,4.34737 -5.84943,8.08101 -7.98806,10.96949 -41.0161,55.38303 -245.994659,273.99007 -248.045426,319.11693 12.048956,-0.63435 21.679976,17.0142 51.657556,-2.64464 22.72639,-14.90294 35.05745,-27.14478 62.44272,-46.09444 6.95134,-4.81013 25.51715,-8.63316 32.98546,-14.70532 5.77592,-4.69683 16.33517,-22.95017 22.03565,-28.04393 23.42305,-20.93118 47.50939,-51.73677 71.33551,-62.24139 5.94971,-2.62343 -10.16842,-7.31976 5.29268,-21.41311 15.57101,-14.19234 17.60251,-3.69173 21.6504,-7.89303 12.04625,-12.50252 24.87187,-19.5923 36.87554,-31.59849 13.45367,-16.9167 27.98587,-33.24151 43.24733,-48.92988 C 422.09886,601.5269 408.79623,587.3112 400.03245,578.7682 383.29564,562.45147 364.93108,551.99839 344.35371,549.87886 Z m 299.59041,5.04367 c -8.49336,3.65117 -17.09655,7.96982 -26.35474,12.98187 -22.98517,12.44352 -29.09818,31.51954 -21.03122,42.21578 l -1.51657,31.10078 c 5.53497,5.10612 16.3132,4.57605 25.07911,4.49228 12.96417,-0.12293 28.91967,0.30759 42.50108,-2.85067 3.89894,-0.90629 6.95955,-1.40468 9.44693,-1.5434 2.20867,-11.18579 3.41349,-22.62632 2.85607,-34.60783 -0.82389,-17.6919 -23.15465,-36.75889 -30.98066,-51.78881 z" id="path8778" inkscape:connector-curvature="0" sodipodi:nodetypes="ccccsssscscccscssscccccccccccccccccssccccccccccccccccccccccccccccccccccccccccccccc" inkscape:export-xdpi="24.959999" inkscape:export-ydpi="24.959999"></path>
            </g>
          </svg>
