<?xml version="1.0" encoding="UTF-8" standalone="no"?>
<svg
   xmlns:dc="http://purl.org/dc/elements/1.1/"
   xmlns:cc="http://creativecommons.org/ns#"
   xmlns:rdf="http://www.w3.org/1999/02/22-rdf-syntax-ns#"
   xmlns:svg="http://www.w3.org/2000/svg"
   xmlns="http://www.w3.org/2000/svg"
   xmlns:sodipodi="http://sodipodi.sourceforge.net/DTD/sodipodi-0.dtd"
   xmlns:inkscape="http://www.inkscape.org/namespaces/inkscape"
   inkscape:version="0.92.5 (2060ec1f9f, 2020-04-08)"
   sodipodi:docname="reykunyu.svg"
   id="svg3"
   version="1.1"
   viewBox="0 0 3287.9751 1126.9911"
   height="3.7566371in"
   width="10.959917in">
  <metadata
     id="metadata9">
    <rdf:RDF>
      <cc:Work
         rdf:about="">
        <dc:format>image/svg+xml</dc:format>
        <dc:type
           rdf:resource="http://purl.org/dc/dcmitype/StillImage" />
        <dc:title></dc:title>
      </cc:Work>
    </rdf:RDF>
  </metadata>
  <defs
     id="defs7" />
  <sodipodi:namedview
     inkscape:current-layer="svg3"
     inkscape:window-maximized="1"
     inkscape:window-y="0"
     inkscape:window-x="1920"
     inkscape:cy="231.60624"
     inkscape:cx="267.20243"
     inkscape:zoom="0.50216375"
     showgrid="false"
     id="namedview5"
     inkscape:window-height="1005"
     inkscape:window-width="1920"
     inkscape:pageshadow="2"
     inkscape:pageopacity="0"
     guidetolerance="10"
     gridtolerance="10"
     objecttolerance="10"
     borderopacity="1"
     bordercolor="#666666"
     pagecolor="#ffffff"
     fit-margin-top="0.5"
     fit-margin-left="0.5"
     fit-margin-right="0.5"
     fit-margin-bottom="0.5" />
  <path
     sodipodi:nodetypes="sccccccccccccccccccccccsccccccccccccccccccccccscccccccscccccccccccccccccccccccccccccccscccccccccccsscccccccccssccccccccccccccsscccccccccssscccs"
     d="m 210.62777,150.00137 c -13.36278,0.14532 -23.84787,11.91178 -26.40991,43.26785 -7.05427,42.10409 -12.67496,84.23341 -13.5376,126.39769 -11.00275,41.96544 5.43897,67.48785 -10.16235,106.81154 -0.64377,65.71691 -9.10624,127.96978 -9.21631,193.573 -2.25943,63.69201 -1.53607,127.10079 1.84937,190.0757 5.9243,44.17485 12.62674,131.79605 75.3479,115.16115 56.73423,-10.3417 75.42144,-64.072 67.21802,-113.27518 23.37446,-37.08841 -30.9228,-151.35592 27.97851,-119.7937 59.16699,23.73941 94.39587,74.6461 155.51759,95.48338 61.79976,6.27263 124.86607,34.04797 188.78173,46.24635 72.87372,4.50881 144.82907,4.86709 218.04201,6.03637 51.68853,-19.9525 114.58567,6.13232 162.70137,-26.92259 57.8658,-6.79931 106.3595,-105.49891 46.3502,-126.38551 -40.5227,19.3121 -79.8699,46.19013 -132.8736,30.96313 -51.24501,0.43113 -100.06516,-9.76381 -149.43235,-16.37572 -60.34916,13.04669 -107.61326,-37.8885 -166.40016,-32.6355 -100.41685,-16.53991 16.7639,-61.00966 31.71387,-98.33985 65.2185,-12.39368 57.86775,-84.71575 90.58226,-124.40797 C 754.33966,390.1041 799.65772,333.77073 751.796,291.33438 723.43069,244.6285 691.88644,199.14962 630.36656,195.92422 573.14812,178.21984 511.82709,182.56294 452.30259,177.83953 401.1089,208.15028 342.32922,212.33512 285.5057,226.75919 277.40473,198.11697 237.98966,149.70375 210.62777,150.00137 Z m 1478.30203,35.35157 c -24.997,33.32978 -7.918,85.05528 -17.3095,125.70191 -7.7331,47.2545 -7.5399,93.40438 -17.0655,141.24757 8.9429,40.55369 -1.225,79.39712 -6.7688,118.64013 13.237,51.8064 15.7604,101.18169 10.9314,154.27247 10.1147,34.87459 9.0103,77.62688 42.0899,103.94897 31.7995,49.65331 104.169,13.55116 103.5583,-39.67894 19.775,-35.11831 -20.6047,-127.85335 24.3225,-127.47194 51.363,28.35931 101.1181,58.51428 154.8523,80.85328 43.1061,7.6511 79.0486,39.63338 124.8963,36.40747 62.841,37.5916 144.6059,19.47335 197.2412,-28.20434 72.0683,22.94678 142.5643,-137.54897 42.6331,-96.45997 -44.6164,19.63522 -68.9281,58.64191 -122.754,39.09303 -45.734,-4.44462 -89.9825,-20.96384 -133.7341,-32.33644 -46.3323,-33.1765 -94.0002,-52.53697 -147.522,-73.04078 -26.6836,-17.54288 -61.6684,-26.66175 -82.0373,-48.51685 68.4578,-19.59487 93,-87.78147 98.761,-152.55125 17.1106,-49.7815 59.0039,-115.96738 19.4885,-163.98929 -53.0385,-64.97688 -71.0743,-24.29035 -83.1299,29.6875 -27.4978,60.81197 -62.9979,118.78473 -101.3672,172.8882 -20.2135,-32.28179 -21.6542,-85.36632 -28.3264,-127.6062 -29.8636,-35.248 -24.7087,-105.73041 -78.7598,-112.88453 z m -1168.78665,73.407 c 16.59413,0.39141 33.22491,2.96438 49.15772,7.58056 48.60366,-1.13368 74.52857,62.76741 65.28322,103.11279 5.30547,51.14903 -41.77722,78.50625 -73.88306,113.64747 -42.05454,40.832 -96.96997,62.6385 -153.41188,76.062 -40.66984,-2.2689 -101.77207,-32.35256 -110.63843,-72.17406 2.1322,-44.0545 -3.44154,-87.96578 8.16651,-130.92041 -3.90529,-45.52691 70.58668,-66.2941 114.21511,-66.77247 28.28478,-21.70297 64.60375,-31.397 101.11081,-30.53588 z m 622.41215,96.50879 c -21.6658,66.25897 35.5819,95.86112 66.6992,145.19653 27.2349,14.90132 -73.5307,41.17763 -97.1313,81.82985 -41.9809,40.03409 -108.1301,30.0195 -161.71269,25.17087 -44.47222,-17.174 -127.41666,-31.34234 -28.08228,-34.11253 51.9844,1.5845 104.42727,7.23119 155.44437,-4.3274 35.4815,-30.75429 71.1717,-95.20035 25.2197,-136.21217 -11.134,-10.83259 -23.909,-18.15331 -36.2061,-21.49046 -36.033,-20.85947 -119.18794,-44.69957 -161.92622,-45.50782 -8.763,-1.46525 -17.76107,-1.47915 -25.87282,0.0312 -62.77006,-2.67756 -99.32984,63.34885 -116.21094,116.17435 -15.91369,45.82478 -24.37991,118.0941 32.34863,143.6035 36.43562,28.73891 84.95694,38.92785 126.02541,57.89794 45.40266,4.83082 91.27874,-2.59587 138.00664,0.89722 42.4292,-25.61037 105.4172,-6.96184 140.1489,-40.55175 8.1152,-13.85166 44.9427,-65.9916 61.4624,-97.5891 38.4881,34.73097 127.0452,54.05282 102.4597,100.48216 -75.9174,77.23341 -160.9869,143.24335 -261.1755,183.55713 -70.7863,31.33175 -146.22155,49.13135 -219.68999,71.28295 -32.46728,0.9969 -149.90681,44.0572 -74.68262,61.8042 56.4359,11.3686 112.51044,19.9649 169.09791,7.3304 48.4681,-3.586 98.4755,3.7316 142.9932,-17.2547 63.4851,-22.4351 125.4732,-65.1415 188.4033,-88.4277 35.5438,-34.36361 100.2174,-58.7983 119.5313,-111.73709 33.9798,-55.56031 101.9973,-69.79303 124.4018,-140.64331 44.0187,-44.6066 37.3606,-110.73885 87.1155,-151.45876 15.8524,-43.618 -45.3099,-138.92331 -91.1621,-85.54688 -21.7941,32.98697 -31.5155,70.38873 -62.1155,98.96851 -16.0656,67.81162 -66.7382,36.32234 -102.4658,5.10865 -57.7922,8.3136 -69.3914,-64.0265 -112.8113,-85.96191 -33.3562,-33.76831 -83.315,-38.45872 -128.1128,-38.51318 z m 905.4749,13.739 c -38.9408,-1.41394 -26.8224,59.09212 -33.9234,89.5935 l -0.6164,4.38234 -1.6358,10.92528 c -3.4308,35.02351 14.2704,79.05744 32.4463,109.93045 27.9642,31.18868 59.5593,64.08478 106.2012,51.54419 51.9712,-10.94441 96.3293,43.1324 127.8809,-14.88038 8.2015,-34.441 -14.0415,-145.44297 -10.907,-127.9175 -18.1214,-14.4741 -7.6711,-64.57782 -39.386,-85.29663 -79.5063,-45.128 -56.0836,77.00316 -49.1944,120.38575 21.7029,61.87482 -101.9958,48.79138 -71.1547,-24.34081 -18.0213,-44.97932 4.3394,-107.86838 -45.9107,-131.79932 -5.199,-1.5734 -9.7717,-2.38059 -13.8,-2.52687 z m 265.7776,0.28062 c -6.582,-0.0544 -11.9449,3.57075 -11.2061,13.20191 -54.9894,29.97134 -17.3903,88.95547 -16.6443,138.15307 11.7872,12.56468 12.1708,114.12856 84.5154,108.59375 48.9847,-48.919 -32.6309,-145.09197 27.7039,-174.59107 60.9041,-8.15791 43.0801,60.40541 57.3242,101.93482 -0.9029,43.30269 13.1232,114.67794 72.7112,95.19653 10.6829,-38.99791 15.4379,-85.13547 15.863,-124.78028 -11.4822,-40.46601 -18.427,-88.05432 -59.0027,-110.43091 -31.9471,-59.78929 -113.664,-2.93713 -155.9936,-41.55885 -4.2916,-3.40309 -10.1517,-5.67656 -15.271,-5.71897 z m 255.8349,33.22753 c -10.4499,-0.15343 -20.8678,6.09494 -31.1767,21.62475 l -2.2705,6.87866 c 3.3126,40.34941 29.3023,74.07385 61.2304,100.25635 21.1453,35.10462 100.298,54.59522 58.7586,99.98169 -56.324,61.20772 -120.4342,116.537 -188.3728,166.64432 -52.2786,13.50309 -97.9002,57.20745 -155.7984,46.75903 -57.1789,7.77992 -111.8705,-16.15194 -168.457,-14.27003 10.1815,44.97495 87.2717,91.21055 143.9514,93.57905 64.7238,12.7518 131.7098,10.2546 194.2627,-7.2265 57.693,-35.7158 115.1827,-69.8779 167.0105,-114.89258 36.4911,-27.19051 60.8364,-71.14482 91.0523,-107.67213 2.2139,-51.531 57.8213,-76.07572 59.4116,-128.85132 18.6486,-42.39031 33.1134,-106.81135 -6.1645,-142.96266 -66.1578,-7.2825 -39.6285,143.25438 -104.0955,103.60719 -36.8984,-23.73094 -78.3463,-122.8535 -119.3421,-123.45582 z m 335.2601,7.23879 c -7.4481,0.26718 -15.3479,3.05693 -23.4375,9.11862 -7.0514,41.07863 -14.8796,87.10497 -10.6751,127.72219 5.6988,53.09769 39.6078,96.29694 81.2622,124.73144 43.7238,19.626 100.3985,-14.69209 138.4644,21.344 54.4624,-6.8639 52.6186,-74.80953 40.3931,-118.26781 -4.7674,-52.55122 -14.3597,-51.46447 -33.4107,-109.11257 -41.6247,-69.0275 -85.0256,-4.99734 -66.2048,43.99416 0.4018,47.1906 23.5236,123.48785 -54.9988,95.09275 -6.4178,-40.36669 -24.9526,-89.75244 -20.8862,-135.16235 -3.0762,-29.1979 -23.9065,-60.41475 -50.5066,-59.46043 z M 956.64976,434.27476 c 3.20925,-0.21938 18.21225,1.16309 21.95747,2.78428 22.33517,9.66828 28.03487,17.32969 34.71827,30.57525 -18.12943,59.02041 -99.26671,54.48432 -148.6999,45.76416 0.89128,-39.3506 46.29784,-45.03306 68.34106,-71.56372 6.36375,-6.42069 14.58669,-6.93785 23.6831,-7.55997 z"
     style="display:inline;stroke-width:1"
     id="Selection-8"
     inkscape:connector-curvature="0" />
</svg>
